<?xml version="1.0" encoding="UTF-8" standalone="no"?>
<svg
   xmlns:dc="http://purl.org/dc/elements/1.1/"
   xmlns:cc="http://creativecommons.org/ns#"
   xmlns:rdf="http://www.w3.org/1999/02/22-rdf-syntax-ns#"
   xmlns:svg="http://www.w3.org/2000/svg"
   xmlns="http://www.w3.org/2000/svg"
   xmlns:sodipodi="http://sodipodi.sourceforge.net/DTD/sodipodi-0.dtd"
   xmlns:inkscape="http://www.inkscape.org/namespaces/inkscape"
   inkscape:version="1.0 (4035a4fb49, 2020-05-01)"
   sodipodi:docname="logo-white.svg"
   id="svg21"
   version="1.1"
   height="20"
   width="139">
  <metadata
     id="metadata25">
    <rdf:RDF>
      <cc:Work
         rdf:about="">
        <dc:format>image/svg+xml</dc:format>
        <dc:type
           rdf:resource="http://purl.org/dc/dcmitype/StillImage" />
        <dc:title></dc:title>
      </cc:Work>
    </rdf:RDF>
  </metadata>
  <sodipodi:namedview
     inkscape:current-layer="svg21"
     inkscape:window-maximized="1"
     inkscape:window-y="-9"
     inkscape:window-x="-9"
     inkscape:cy="10"
     inkscape:cx="102.39047"
     inkscape:zoom="8.6043165"
     showgrid="false"
     id="namedview23"
     inkscape:window-height="1001"
     inkscape:window-width="1920"
     inkscape:pageshadow="2"
     inkscape:pageopacity="0"
     guidetolerance="10"
     gridtolerance="10"
     objecttolerance="10"
     borderopacity="1"
     bordercolor="#666666"
     pagecolor="#ffffff" />
  <defs
     id="defs7">
    <linearGradient
       y2="100%"
       y1="0%"
       x2="17.503%"
       x1="72.195%"
       id="a">
      <stop
         id="stop2"
         stop-color="#33D35E"
         offset="0%" />
      <stop
         id="stop4"
         stop-color="#2AB6D9"
         offset="100%" />
    </linearGradient>
  </defs>
  <g
     id="g19"
     fill-rule="evenodd"
     fill="none">
    <path
       id="path9"
       d="M37.754 15.847c2.852 0 5.152-1.622 5.952-4.216h-3.897c-.376.665-1.14 1.066-2.055 1.066-1.237 0-2.065-.674-2.32-1.978h8.44c.051-.352.081-.694.081-1.037 0-3.335-2.537-5.95-6.201-5.95-3.568 0-6.175 2.564-6.175 6.049 0 3.473 2.628 6.066 6.175 6.066zm2.344-7.297h-4.596c.317-1.129 1.11-1.749 2.252-1.749 1.181 0 2 .613 2.344 1.75zm10.946 7.296c1.32 0 2.5-.434 3.43-1.188l.336.804h3.027V4.093h-2.919l-.4.88c-.94-.775-2.135-1.222-3.474-1.222-3.476 0-5.961 2.505-5.961 6.026 0 3.533 2.485 6.07 5.961 6.07zm.524-3.467c-1.467 0-2.545-1.108-2.545-2.593 0-1.475 1.069-2.583 2.545-2.583 1.466 0 2.544 1.108 2.544 2.583 0 1.485-1.078 2.593-2.544 2.593zm13.123 3.467c3.02 0 5.025-1.554 5.025-3.93 0-2.883-2.387-3.256-4.183-3.575-1.08-.193-1.95-.344-1.95-.99 0-.527.422-.838 1.05-.838.71 0 1.197.337 1.197 1.063h3.667c-.044-2.303-1.92-3.843-4.816-3.843-2.912 0-4.854 1.47-4.854 3.75 0 2.757 2.337 3.289 4.1 3.574 1.092.181 1.952.368 1.952 1.024 0 .587-.543.88-1.116.88-.742 0-1.32-.383-1.32-1.214h-3.77c.036 2.463 1.919 4.1 5.018 4.1zm8.1 3.858c2.936 0 4.344-1.257 5.877-4.736l4.764-10.863h-4.206l-2.249 6.263-2.412-6.263H70.31l4.698 10.43c-.53 1.414-.983 1.804-2.48 1.804H71.45v3.365h1.341zm18.504-3.858c3.5 0 5.973-2.515 5.973-6.048S94.796 3.75 91.295 3.75a5.332 5.332 0 00-2.825.784V0H84.6v15.474h2.897l.37-.844c.923.771 2.102 1.216 3.428 1.216zm-.523-3.467c-1.467 0-2.545-1.108-2.545-2.58 0-1.486 1.078-2.594 2.545-2.594 1.466 0 2.544 1.108 2.544 2.593 0 1.473-1.087 2.58-2.544 2.58zm13.598 3.467c1.32 0 2.5-.434 3.43-1.188l.336.804h3.027V4.093h-2.918l-.401.88c-.939-.775-2.135-1.222-3.474-1.222-3.476 0-5.96 2.505-5.96 6.026 0 3.533 2.484 6.07 5.96 6.07zm.524-3.467c-1.467 0-2.545-1.108-2.545-2.593 0-1.475 1.07-2.583 2.545-2.583 1.467 0 2.545 1.108 2.545 2.583 0 1.485-1.078 2.593-2.545 2.593zm12.653 3.095V9.403c0-1.447.702-2.3 1.923-2.3.986 0 1.483.657 1.483 1.98v6.39h3.915V8.543c0-2.897-1.733-4.773-4.373-4.773-1.47 0-2.733.565-3.58 1.508l-.537-1.172h-2.747v11.369h3.916zm13.748 0v-4.808l2.848 4.808h4.616l-3.902-5.95 3.543-5.419h-4.397l-2.708 4.454V0h-3.916v15.474h3.916z"
       fill-rule="nonzero"
       fill="#2D314D" />
    <g
       id="g17"
       fill="url(#a)">
      <path
         id="path11"
         d="M10.802 0L0 19.704h5.986L16.789 0z" />
      <path
         id="path13"
         d="M18.171 0L7.368 19.704h5.986L24.157 0z"
         opacity=".5" />
      <path
         id="path15"
         d="M25.539 0L14.737 19.704h5.986L31.525 0z"
         opacity=".15" />
    </g>
  </g>
  <path
     id="path27"
     d="m 36.110458,15.572015 c -2.111469,-0.568331 -3.716483,-2.16554 -4.271467,-4.250697 -0.198989,-0.747631 -0.217266,-2.0655376 -0.04041,-2.9136326 0.317385,-1.521957 1.51174,-3.1303754 2.855589,-3.8455734 3.536771,-1.882273 8.058385,-0.1196294 9.006091,3.5108101 0.109816,0.4206788 0.202679,1.1701904 0.206364,1.6655812 l 0.0067,0.9007107 h -4.254656 -4.254656 l 0.07967,0.319607 c 0.27115,1.087729 0.944822,1.670827 2.020233,1.748615 0.900033,0.0651 1.564745,-0.136826 2.050969,-0.623049 l 0.404953,-0.404954 1.865903,0.03194 1.865903,0.03194 -0.375111,0.755435 c -0.726721,1.463539 -2.217382,2.642507 -3.892939,3.078933 -0.834386,0.21733 -2.455087,0.214525 -3.27314,-0.0057 z m 4.043806,-7.1182411 c 0,-0.294153 -0.74073,-1.2023811 -1.151579,-1.4119805 -0.635073,-0.3239903 -1.821488,-0.3267099 -2.45088,-0.00562 -0.425022,0.2168301 -1.04637,1.0339169 -1.04637,1.3760004 0,0.098104 0.636083,0.135065 2.324414,0.135065 1.278429,0 2.324415,-0.04206 2.324415,-0.093467 z"
     style="fill:#ffffff;fill-opacity:1;stroke-width:0.116221" />
  <path
     id="path29"
     d="M 49.415633,15.585466 C 46.677687,14.798228 45.012522,12.368274 45.189893,9.4188963 45.295726,7.6590603 45.83283,6.4608666 47.000428,5.3798759 48.95311,3.5720369 51.798359,3.300545 54.020829,4.7099935 l 0.547941,0.347494 0.185383,-0.4633173 0.185383,-0.4633174 h 1.44014 1.44014 V 9.7675585 15.404264 H 56.31796 54.816103 l -0.134247,-0.406772 c -0.144852,-0.438907 -0.246695,-0.495342 -0.450574,-0.249683 -0.07171,0.0864 -0.50856,0.331408 -0.970789,0.544463 -0.757609,0.349205 -0.96088,0.390656 -2.062997,0.420688 -0.789793,0.02152 -1.420563,-0.02361 -1.781863,-0.127494 z m 3.652445,-3.611212 c 1.702909,-1.19685 1.301747,-4.0604728 -0.659502,-4.7077436 -0.650698,-0.2147497 -1.714207,-0.081685 -2.266081,0.2835278 -1.347371,0.8916479 -1.569205,3.0186008 -0.427638,4.1002038 0.655671,0.62123 0.982652,0.738429 1.964923,0.704285 0.775703,-0.02696 0.955783,-0.07629 1.388298,-0.380273 z"
     style="fill:#ffffff;fill-opacity:1;stroke-width:0.116221" />
  <path
     id="path31"
     d="m 62.962662,15.573349 c -1.755463,-0.472706 -2.91164,-1.640329 -3.156208,-3.187456 l -0.09239,-0.584472 h 1.842175 c 1.787437,0 1.842174,0.0072 1.842174,0.241382 0,0.13276 0.152875,0.394256 0.339723,0.581104 0.294918,0.294918 0.4259,0.339722 0.993158,0.339722 0.538812,0 0.703479,-0.05004 0.938707,-0.285269 0.492556,-0.492557 0.317406,-1.086449 -0.401036,-1.359815 -0.165864,-0.06311 -0.8152,-0.217752 -1.442969,-0.343645 -1.60242,-0.321351 -2.356553,-0.631275 -2.999534,-1.2327076 -0.641807,-0.6003352 -0.914671,-1.2698531 -0.914671,-2.2442989 0,-0.7855232 0.153237,-1.2786582 0.602845,-1.940029 1.404979,-2.0667177 5.731684,-2.3785527 7.74648,-0.5583057 0.512967,0.4634358 1.005217,1.3637677 1.129498,2.0658676 l 0.07715,0.4358278 H 67.66793 65.868102 L 65.79937,7.1575967 C 65.635293,6.3372109 63.967941,6.1920207 63.614674,6.967357 c -0.194275,0.4263867 -0.04055,0.8297865 0.392637,1.0303164 0.208437,0.09649 1.054195,0.3152922 1.879462,0.4862265 2.115099,0.4380919 2.902559,0.8868371 3.473567,1.9794601 0.386229,0.739048 0.355043,2.124011 -0.06719,2.98381 -0.752516,1.53237 -2.334723,2.309656 -4.674423,2.29639 -0.575293,-0.0033 -1.320523,-0.07986 -1.656067,-0.170211 z"
     style="fill:#ffffff;fill-opacity:1;stroke-width:0.116221" />
  <path
     id="path33"
     d="m 71.533863,18.091088 v -1.613345 l 1.016931,-0.08267 c 1.320914,-0.107384 1.700187,-0.292198 2.127088,-1.036498 0.187232,-0.326438 0.340913,-0.676596 0.341512,-0.778128 8.69e-4,-0.147062 -4.362811,-9.9663747 -4.598522,-10.3477623 -0.03513,-0.056843 0.854638,-0.1018309 2.014007,-0.1018309 h 2.076941 l 1.208167,3.1548392 c 0.891383,2.327632 1.237089,3.10899 1.318467,2.979979 0.06066,-0.09617 0.585902,-1.5027765 1.167194,-3.1257843 l 1.056894,-2.9509235 2.019096,-0.031861 c 1.886664,-0.029771 2.01518,-0.018337 1.959387,0.1743311 C 83.09929,4.8208762 78.436616,15.325892 77.94641,16.26021 c -0.704718,1.343175 -1.66656,2.395489 -2.612918,2.858691 -0.698975,0.342118 -2.055719,0.577472 -3.363801,0.583516 l -0.435828,0.002 z"
     style="fill:#ffffff;fill-opacity:1;stroke-width:0.116221" />
  <path
     id="path35"
     d="m 89.838629,15.589732 c -0.57951,-0.18405 -1.644058,-0.722197 -1.741945,-0.880582 -0.134645,-0.217859 -0.287361,-0.121873 -0.458759,0.288342 l -0.169961,0.406772 H 86.067385 84.666806 V 7.7336957 0.06312709 h 1.859532 1.859532 V 2.3418658 c 0,1.7796309 0.03182,2.264726 0.145275,2.2147626 1.716591,-0.7559452 2.664762,-0.9028252 3.998852,-0.6194564 1.262033,0.2680635 2.084304,0.7087088 2.94745,1.5795038 1.527462,1.5409964 2.074616,3.6654843 1.511296,5.8680432 -0.301181,1.177609 -0.729408,1.951009 -1.51607,2.738104 -1.081987,1.082581 -2.527958,1.63653 -4.234758,1.622328 -0.513922,-0.0043 -1.143601,-0.07422 -1.399286,-0.155419 z m 2.100195,-3.427191 C 92.911695,11.720672 93.511626,10.505 93.335715,9.331945 92.985776,6.9983829 89.805935,6.3569088 88.561995,8.3689352 88.257167,8.8619825 88.211988,9.042894 88.21499,9.7584445 c 0.0051,1.2048145 0.491718,2.0233195 1.450137,2.4389435 0.567865,0.246258 1.69274,0.229017 2.273697,-0.03485 z"
     style="fill:#ffffff;fill-opacity:1;stroke-width:0.116221" />
  <path
     id="path37"
     d="m 102.60059,15.536737 c -2.49562,-0.735719 -4.103516,-2.98789 -4.103516,-5.7477653 0,-3.0149119 1.802456,-5.2559352 4.706936,-5.8522043 0.78051,-0.1602318 1.07765,-0.1695263 1.85092,-0.057896 0.8679,0.1252924 1.96745,0.5544592 2.57602,1.0054522 0.23191,0.1718556 0.2526,0.1587693 0.45348,-0.2866978 l 0.21049,-0.466773 h 1.377 1.37699 v 5.6367057 5.6367055 h -1.43866 -1.43866 l -0.15037,-0.377717 c -0.0827,-0.207745 -0.15969,-0.391687 -0.17105,-0.408761 -0.0114,-0.01707 -0.32707,0.153458 -0.70155,0.378958 -0.92464,0.556788 -1.31167,0.659782 -2.66618,0.709493 -0.88337,0.03242 -1.33486,-0.0082 -1.88185,-0.1695 z m 3.57783,-3.423217 c 0.35987,-0.188999 0.62455,-0.455356 0.88993,-0.89557 0.32509,-0.539264 0.37736,-0.732536 0.37517,-1.3871398 -0.003,-0.9210733 -0.26032,-1.5470065 -0.84768,-2.0627162 -0.93515,-0.8210648 -2.47811,-0.8210648 -3.41325,0 -1.37629,1.2083973 -1.03563,3.724791 0.60253,4.450809 0.5857,0.259579 1.80019,0.206102 2.3933,-0.105383 z"
     style="fill:#ffffff;fill-opacity:1;stroke-width:0.116221" />
  <path
     id="path39"
     d="M 113.72199,9.7675585 V 4.1308528 h 1.31319 1.31319 l 0.13856,0.3831804 c 0.0762,0.2107493 0.21149,0.4829119 0.30062,0.6048058 0.15591,0.2132179 0.17889,0.2068431 0.60586,-0.1680426 0.95538,-0.8388336 2.51142,-1.266146 3.82946,-1.051629 1.45652,0.2370539 2.67445,1.1967257 3.21424,2.5326663 0.25951,0.6422756 0.2688,0.7903848 0.30227,4.8175393 l 0.0345,4.154891 h -1.86501 -1.865 v -3.24846 c 0,-3.4843918 -0.0893,-4.2894877 -0.52371,-4.7239427 -0.52379,-0.5237904 -1.63134,-0.5045682 -2.27797,0.039536 -0.69629,0.5858886 -0.73099,0.7878581 -0.77874,4.5334107 l -0.0434,3.399456 h -1.84907 -1.84907 z"
     style="fill:#ffffff;fill-opacity:1;stroke-width:0.116221" />
  <path
     id="path41"
     d="M 127.43604,7.7336957 V 0.06312709 h 1.91764 1.91764 V 4.3284281 c 0,2.6297301 0.0414,4.2229633 0.10803,4.1548913 0.0594,-0.060725 0.66544,-1.025648 1.34671,-2.1442726 0.68127,-1.1186246 1.27719,-2.0743316 1.32425,-2.1237935 0.0471,-0.049462 1.01403,-0.075611 2.14882,-0.05811 l 2.06324,0.03182 -1.7427,2.6644699 -1.74271,2.6644699 0.37987,0.5897109 c 0.20892,0.324341 1.03125,1.583398 1.8274,2.797904 0.79614,1.214507 1.48695,2.273569 1.53513,2.35347 0.0688,0.114201 -0.38572,0.145276 -2.12511,0.145276 h -2.2127 l -1.42606,-2.408965 -1.42606,-2.408966 -0.0314,2.408966 -0.0314,2.408965 h -1.91529 -1.91528 z"
     style="fill:#ffffff;fill-opacity:1;stroke-width:0.116221" />
</svg>
